<mxfile host="app.diagrams.net" agent="Mozilla/5.0 (Windows NT 10.0; Win64; x64) AppleWebKit/537.36 (KHTML, like Gecko) Chrome/128.0.0.0 YaBrowser/24.10.0.0 Safari/537.36" version="24.8.3">
  <diagram name="Страница — 1" id="1XpZwg74eWjvjaHf1U1_">
    <mxGraphModel dx="792" dy="434" grid="1" gridSize="10" guides="1" tooltips="1" connect="1" arrows="1" fold="1" page="1" pageScale="1" pageWidth="827" pageHeight="1169" math="0" shadow="0">
      <root>
        <mxCell id="0" />
        <mxCell id="1" parent="0" />
        <mxCell id="39SbjI8Acg3vgjyYuDgB-1" value="Actor" style="shape=umlActor;verticalLabelPosition=bottom;verticalAlign=top;html=1;outlineConnect=0;" parent="1" vertex="1">
          <mxGeometry x="240" y="265" width="30" height="60" as="geometry" />
        </mxCell>
        <mxCell id="39SbjI8Acg3vgjyYuDgB-3" value="выбрать карту" style="ellipse;whiteSpace=wrap;html=1;" parent="1" vertex="1">
          <mxGeometry x="200" y="130" width="110" height="30" as="geometry" />
        </mxCell>
        <mxCell id="39SbjI8Acg3vgjyYuDgB-4" value="Выйти из игры" style="ellipse;whiteSpace=wrap;html=1;" parent="1" vertex="1">
          <mxGeometry x="90" y="340" width="110" height="30" as="geometry" />
        </mxCell>
        <mxCell id="39SbjI8Acg3vgjyYuDgB-5" value="Играть" style="ellipse;whiteSpace=wrap;html=1;" parent="1" vertex="1">
          <mxGeometry x="440" y="180" width="110" height="30" as="geometry" />
        </mxCell>
        <mxCell id="39SbjI8Acg3vgjyYuDgB-6" value="Получить приз" style="ellipse;whiteSpace=wrap;html=1;" parent="1" vertex="1">
          <mxGeometry x="440" y="265" width="110" height="30" as="geometry" />
        </mxCell>
        <mxCell id="39SbjI8Acg3vgjyYuDgB-7" value="Пополнить баланс" style="ellipse;whiteSpace=wrap;html=1;" parent="1" vertex="1">
          <mxGeometry x="420" y="110" width="110" height="30" as="geometry" />
        </mxCell>
        <mxCell id="39SbjI8Acg3vgjyYuDgB-8" value="&lt;font style=&quot;font-size: 8px;&quot;&gt;Вывести информацию&lt;/font&gt;&lt;div&gt;&lt;font style=&quot;font-size: 8px;&quot;&gt;&amp;nbsp;по карте&lt;/font&gt;&lt;/div&gt;" style="ellipse;whiteSpace=wrap;html=1;" parent="1" vertex="1">
          <mxGeometry x="20" y="90" width="110" height="30" as="geometry" />
        </mxCell>
        <mxCell id="39SbjI8Acg3vgjyYuDgB-9" value="&lt;span style=&quot;font-size: 8px;&quot;&gt;Перевести кредиты&lt;/span&gt;" style="ellipse;whiteSpace=wrap;html=1;" parent="1" vertex="1">
          <mxGeometry x="20" y="190" width="110" height="30" as="geometry" />
        </mxCell>
        <mxCell id="39SbjI8Acg3vgjyYuDgB-10" value="&lt;span style=&quot;font-size: 8px;&quot;&gt;Перевести билеты&lt;/span&gt;" style="ellipse;whiteSpace=wrap;html=1;" parent="1" vertex="1">
          <mxGeometry x="70" y="265" width="110" height="30" as="geometry" />
        </mxCell>
        <mxCell id="39SbjI8Acg3vgjyYuDgB-14" value="" style="endArrow=none;html=1;rounded=0;entryX=0;entryY=0.5;entryDx=0;entryDy=0;elbow=vertical;exitX=1;exitY=0.5;exitDx=0;exitDy=0;endFill=0;startArrow=none;startFill=0;dashed=1;" parent="1" source="39SbjI8Acg3vgjyYuDgB-9" target="39SbjI8Acg3vgjyYuDgB-3" edge="1">
          <mxGeometry width="50" height="50" relative="1" as="geometry">
            <mxPoint x="300" y="250" as="sourcePoint" />
            <mxPoint x="350" y="200" as="targetPoint" />
          </mxGeometry>
        </mxCell>
        <mxCell id="SoERLkksI22yWDjEAsKn-2" value="include" style="edgeLabel;html=1;align=center;verticalAlign=middle;resizable=0;points=[];" vertex="1" connectable="0" parent="39SbjI8Acg3vgjyYuDgB-14">
          <mxGeometry x="0.2074" y="2" relative="1" as="geometry">
            <mxPoint as="offset" />
          </mxGeometry>
        </mxCell>
        <mxCell id="39SbjI8Acg3vgjyYuDgB-17" value="include" style="endArrow=none;html=1;rounded=0;entryX=1;entryY=1;entryDx=0;entryDy=0;elbow=vertical;exitX=0;exitY=0.5;exitDx=0;exitDy=0;startArrow=none;startFill=0;endFill=0;dashed=1;" parent="1" source="39SbjI8Acg3vgjyYuDgB-3" target="39SbjI8Acg3vgjyYuDgB-8" edge="1">
          <mxGeometry width="50" height="50" relative="1" as="geometry">
            <mxPoint x="150" y="225" as="sourcePoint" />
            <mxPoint x="220" y="175" as="targetPoint" />
          </mxGeometry>
        </mxCell>
        <mxCell id="39SbjI8Acg3vgjyYuDgB-18" value="&#xa;&lt;span style=&quot;color: rgb(0, 0, 0); font-family: Helvetica; font-size: 11px; font-style: normal; font-variant-ligatures: normal; font-variant-caps: normal; font-weight: 400; letter-spacing: normal; orphans: 2; text-align: center; text-indent: 0px; text-transform: none; widows: 2; word-spacing: 0px; -webkit-text-stroke-width: 0px; white-space: nowrap; background-color: rgb(255, 255, 255); text-decoration-thickness: initial; text-decoration-style: initial; text-decoration-color: initial; display: inline !important; float: none;&quot;&gt;include&lt;/span&gt;&#xa;&#xa;" style="endArrow=none;html=1;rounded=0;entryX=0;entryY=0.5;entryDx=0;entryDy=0;elbow=vertical;exitX=1;exitY=0;exitDx=0;exitDy=0;startArrow=none;startFill=0;endFill=0;dashed=1;" parent="1" source="39SbjI8Acg3vgjyYuDgB-10" target="39SbjI8Acg3vgjyYuDgB-3" edge="1">
          <mxGeometry width="50" height="50" relative="1" as="geometry">
            <mxPoint x="160" y="235" as="sourcePoint" />
            <mxPoint x="230" y="185" as="targetPoint" />
          </mxGeometry>
        </mxCell>
        <mxCell id="39SbjI8Acg3vgjyYuDgB-19" value="&#xa;&lt;span style=&quot;color: rgb(0, 0, 0); font-family: Helvetica; font-size: 11px; font-style: normal; font-variant-ligatures: normal; font-variant-caps: normal; font-weight: 400; letter-spacing: normal; orphans: 2; text-align: center; text-indent: 0px; text-transform: none; widows: 2; word-spacing: 0px; -webkit-text-stroke-width: 0px; white-space: nowrap; background-color: rgb(255, 255, 255); text-decoration-thickness: initial; text-decoration-style: initial; text-decoration-color: initial; display: inline !important; float: none;&quot;&gt;include&lt;/span&gt;&#xa;&#xa;" style="endArrow=none;html=1;rounded=0;entryX=1;entryY=0.5;entryDx=0;entryDy=0;elbow=vertical;exitX=0;exitY=0.5;exitDx=0;exitDy=0;startArrow=none;startFill=0;endFill=0;dashed=1;" parent="1" source="39SbjI8Acg3vgjyYuDgB-7" target="39SbjI8Acg3vgjyYuDgB-3" edge="1">
          <mxGeometry width="50" height="50" relative="1" as="geometry">
            <mxPoint x="170" y="245" as="sourcePoint" />
            <mxPoint x="240" y="195" as="targetPoint" />
          </mxGeometry>
        </mxCell>
        <mxCell id="39SbjI8Acg3vgjyYuDgB-20" value="&#xa;&lt;span style=&quot;color: rgb(0, 0, 0); font-family: Helvetica; font-size: 11px; font-style: normal; font-variant-ligatures: normal; font-variant-caps: normal; font-weight: 400; letter-spacing: normal; orphans: 2; text-align: center; text-indent: 0px; text-transform: none; widows: 2; word-spacing: 0px; -webkit-text-stroke-width: 0px; white-space: nowrap; background-color: rgb(255, 255, 255); text-decoration-thickness: initial; text-decoration-style: initial; text-decoration-color: initial; display: inline !important; float: none;&quot;&gt;include&lt;/span&gt;&#xa;&#xa;" style="endArrow=none;html=1;rounded=0;entryX=1;entryY=0.5;entryDx=0;entryDy=0;elbow=vertical;exitX=0;exitY=0.5;exitDx=0;exitDy=0;startArrow=none;startFill=0;endFill=0;dashed=1;" parent="1" source="39SbjI8Acg3vgjyYuDgB-5" target="39SbjI8Acg3vgjyYuDgB-3" edge="1">
          <mxGeometry width="50" height="50" relative="1" as="geometry">
            <mxPoint x="180" y="255" as="sourcePoint" />
            <mxPoint x="250" y="205" as="targetPoint" />
          </mxGeometry>
        </mxCell>
        <mxCell id="39SbjI8Acg3vgjyYuDgB-21" value="&#xa;&lt;span style=&quot;color: rgb(0, 0, 0); font-family: Helvetica; font-size: 11px; font-style: normal; font-variant-ligatures: normal; font-variant-caps: normal; font-weight: 400; letter-spacing: normal; orphans: 2; text-align: center; text-indent: 0px; text-transform: none; widows: 2; word-spacing: 0px; -webkit-text-stroke-width: 0px; white-space: nowrap; background-color: rgb(255, 255, 255); text-decoration-thickness: initial; text-decoration-style: initial; text-decoration-color: initial; display: inline !important; float: none;&quot;&gt;include&lt;/span&gt;&#xa;&#xa;" style="endArrow=none;html=1;rounded=0;elbow=vertical;exitX=0;exitY=0.5;exitDx=0;exitDy=0;startArrow=none;startFill=0;endFill=0;dashed=1;" parent="1" source="39SbjI8Acg3vgjyYuDgB-6" edge="1">
          <mxGeometry width="50" height="50" relative="1" as="geometry">
            <mxPoint x="190" y="265" as="sourcePoint" />
            <mxPoint x="320" y="170" as="targetPoint" />
          </mxGeometry>
        </mxCell>
        <mxCell id="39SbjI8Acg3vgjyYuDgB-22" value="" style="endArrow=none;html=1;rounded=0;exitX=0;exitY=0.3333333333333333;exitDx=0;exitDy=0;exitPerimeter=0;entryX=1;entryY=0.5;entryDx=0;entryDy=0;" parent="1" source="39SbjI8Acg3vgjyYuDgB-1" target="39SbjI8Acg3vgjyYuDgB-10" edge="1">
          <mxGeometry width="50" height="50" relative="1" as="geometry">
            <mxPoint x="300" y="250" as="sourcePoint" />
            <mxPoint x="350" y="200" as="targetPoint" />
          </mxGeometry>
        </mxCell>
        <mxCell id="39SbjI8Acg3vgjyYuDgB-23" value="" style="endArrow=none;html=1;rounded=0;entryX=0.5;entryY=0;entryDx=0;entryDy=0;" parent="1" source="39SbjI8Acg3vgjyYuDgB-1" target="39SbjI8Acg3vgjyYuDgB-4" edge="1">
          <mxGeometry width="50" height="50" relative="1" as="geometry">
            <mxPoint x="265" y="275" as="sourcePoint" />
            <mxPoint x="140" y="290" as="targetPoint" />
          </mxGeometry>
        </mxCell>
        <mxCell id="39SbjI8Acg3vgjyYuDgB-24" value="" style="endArrow=none;html=1;rounded=0;exitX=0.5;exitY=0;exitDx=0;exitDy=0;exitPerimeter=0;entryX=0;entryY=0.5;entryDx=0;entryDy=0;" parent="1" source="39SbjI8Acg3vgjyYuDgB-1" target="39SbjI8Acg3vgjyYuDgB-6" edge="1">
          <mxGeometry width="50" height="50" relative="1" as="geometry">
            <mxPoint x="275" y="285" as="sourcePoint" />
            <mxPoint x="410" y="270" as="targetPoint" />
          </mxGeometry>
        </mxCell>
        <mxCell id="39SbjI8Acg3vgjyYuDgB-25" value="" style="endArrow=none;html=1;rounded=0;exitX=0.5;exitY=0;exitDx=0;exitDy=0;exitPerimeter=0;entryX=1;entryY=1;entryDx=0;entryDy=0;" parent="1" source="39SbjI8Acg3vgjyYuDgB-1" target="39SbjI8Acg3vgjyYuDgB-9" edge="1">
          <mxGeometry width="50" height="50" relative="1" as="geometry">
            <mxPoint x="285" y="295" as="sourcePoint" />
            <mxPoint x="160" y="310" as="targetPoint" />
          </mxGeometry>
        </mxCell>
        <mxCell id="39SbjI8Acg3vgjyYuDgB-26" value="" style="endArrow=none;html=1;rounded=0;exitX=0.584;exitY=1.108;exitDx=0;exitDy=0;exitPerimeter=0;" parent="1" source="39SbjI8Acg3vgjyYuDgB-8" target="39SbjI8Acg3vgjyYuDgB-1" edge="1">
          <mxGeometry width="50" height="50" relative="1" as="geometry">
            <mxPoint x="295" y="305" as="sourcePoint" />
            <mxPoint x="260" y="270" as="targetPoint" />
          </mxGeometry>
        </mxCell>
        <mxCell id="39SbjI8Acg3vgjyYuDgB-27" value="" style="endArrow=none;html=1;rounded=0;entryX=0;entryY=1;entryDx=0;entryDy=0;" parent="1" source="39SbjI8Acg3vgjyYuDgB-1" target="39SbjI8Acg3vgjyYuDgB-7" edge="1">
          <mxGeometry width="50" height="50" relative="1" as="geometry">
            <mxPoint x="250" y="270" as="sourcePoint" />
            <mxPoint x="180" y="330" as="targetPoint" />
          </mxGeometry>
        </mxCell>
        <mxCell id="39SbjI8Acg3vgjyYuDgB-29" value="" style="endArrow=none;html=1;rounded=0;entryX=0;entryY=1;entryDx=0;entryDy=0;" parent="1" source="39SbjI8Acg3vgjyYuDgB-1" target="39SbjI8Acg3vgjyYuDgB-5" edge="1">
          <mxGeometry width="50" height="50" relative="1" as="geometry">
            <mxPoint x="320" y="310" as="sourcePoint" />
            <mxPoint x="200" y="350" as="targetPoint" />
          </mxGeometry>
        </mxCell>
      </root>
    </mxGraphModel>
  </diagram>
</mxfile>
